<?xml version="1.0" encoding="UTF-8"?>
<svg id="Layer_1" xmlns="http://www.w3.org/2000/svg" viewBox="0 0 1700.79 566.93">
  <path d="M458.96,326.32l-19.9-37.04-15.37-29.36h-.39l.79,30.94v64.04h-28.18v-145.81h27.59l44.73,85.91,44.73-85.91h27.59v145.81h-28.18v-64.04l.79-30.94h-.39l-15.37,29.36-19.9,37.04h-18.52Z"/>
  <path d="M559.85,354.89l58.32-145.81h32.91l55.76,145.81h-29.56l-12.22-32.31h-63.64l-12.02,32.31h-29.56ZM633.74,239.23h-.79l-22.86,60.29h46.3l-22.66-60.29Z"/>
  <path d="M849.11,209.08v145.81h-35.07l-43.15-79.01-16.75-31.53h-.59l.79,31.53v79.01h-28.18v-145.81h35.47l42.56,78.82,16.95,31.53h.59l-.79-31.53v-78.82h28.18Z"/>
  <path d="M945.27,326.32l-19.9-37.04-15.37-29.36h-.39l.79,30.94v64.04h-28.18v-145.81h27.59l44.73,85.91,44.73-85.91h27.59v145.81h-28.18v-64.04l.79-30.94h-.39l-15.37,29.36-19.9,37.04h-18.52Z"/>
  <path d="M1176.21,209.08v84.73c0,40.59-18.13,64.04-59.11,64.04s-59.11-23.45-59.11-64.04v-84.73h28.18v84.73c0,27.98,8.47,41.18,30.94,41.18s30.94-13.2,30.94-41.18v-84.73h28.18Z"/>
  <path d="M1207.34,209.08h28.18v122.76h69.36v23.05h-97.54v-145.81Z"/>
</svg>