<?xml version="1.0" encoding="UTF-8"?>
<svg id="Layer_1" xmlns="http://www.w3.org/2000/svg" viewBox="216 241 626 626"  width="32" height="32">
  <defs>
    <style>
      .cls-1 {
        fill: #fff;
      }

      .cls-2 {
        fill: #fccf00;
      }
    </style>
  </defs>
  <rect class="cls-2" x="216.95" y="241.76" width="626.46" height="626.46" rx="60.05" ry="60.05"/>
  <path class="cls-1" d="M430.25,543.9c-30.69,0-55.57-24.88-55.57-55.57s24.88-55.57,55.57-55.57,55.57,24.88,55.57,55.57-24.88,55.57-55.57,55.57ZM492.04,675.48l192.55-234.94c2.55-3.11.34-7.78-3.68-7.78h-103.62c-1.43,0-2.78.64-3.68,1.74l-192.55,234.94c-2.55,3.11-.34,7.78,3.68,7.78h103.62c1.43,0,2.78-.64,3.68-1.74ZM535.22,668.96c-2.71,3.3-.36,8.26,3.91,8.26h141.49c4.27,0,6.62-4.96,3.91-8.26l-70.74-86.32c-2.02-2.47-5.8-2.47-7.82,0l-70.74,86.32Z"/>
</svg>